<mxfile host="app.diagrams.net" modified="2023-12-21T18:22:57.218Z" agent="Mozilla/5.0 (Macintosh; Intel Mac OS X 10_15_7) AppleWebKit/537.36 (KHTML, like Gecko) Chrome/119.0.0.0 Safari/537.36" etag="-b_fbo2ta1dBQgAYoWH-" version="22.1.11" type="device">
  <diagram name="Page-1" id="7OupTaGBKXsEPS7wiois">
    <mxGraphModel dx="954" dy="642" grid="1" gridSize="10" guides="1" tooltips="1" connect="1" arrows="1" fold="1" page="1" pageScale="1" pageWidth="827" pageHeight="1169" math="0" shadow="0">
      <root>
        <mxCell id="0" />
        <mxCell id="1" parent="0" />
        <mxCell id="rGVmSQzW1h24yDmW4kCV-1" value="" style="rounded=0;whiteSpace=wrap;html=1;fillColor=#f5f5f5;fontColor=#333333;strokeColor=#666666;" vertex="1" parent="1">
          <mxGeometry x="200" y="30" width="530" height="530" as="geometry" />
        </mxCell>
        <mxCell id="rGVmSQzW1h24yDmW4kCV-2" value="" style="rounded=0;whiteSpace=wrap;html=1;fillColor=#dae8fc;strokeColor=#6c8ebf;" vertex="1" parent="1">
          <mxGeometry x="200" y="30" width="530" height="60" as="geometry" />
        </mxCell>
        <mxCell id="rGVmSQzW1h24yDmW4kCV-3" value="" style="rounded=0;whiteSpace=wrap;html=1;" vertex="1" parent="1">
          <mxGeometry x="200" y="90" width="120" height="470" as="geometry" />
        </mxCell>
        <mxCell id="rGVmSQzW1h24yDmW4kCV-4" value="" style="rounded=0;whiteSpace=wrap;html=1;" vertex="1" parent="1">
          <mxGeometry x="370" y="110" width="190" height="430" as="geometry" />
        </mxCell>
        <mxCell id="rGVmSQzW1h24yDmW4kCV-5" value="" style="rounded=0;whiteSpace=wrap;html=1;" vertex="1" parent="1">
          <mxGeometry x="610" y="90" width="120" height="470" as="geometry" />
        </mxCell>
        <mxCell id="rGVmSQzW1h24yDmW4kCV-6" value="story layout" style="text;html=1;align=center;verticalAlign=middle;resizable=0;points=[];autosize=1;strokeColor=none;fillColor=none;" vertex="1" parent="1">
          <mxGeometry x="70" y="88" width="80" height="30" as="geometry" />
        </mxCell>
      </root>
    </mxGraphModel>
  </diagram>
</mxfile>
